<?xml version="1.0" encoding="UTF-8"?>
<svg id="Layer_1" data-name="Layer 1" xmlns="http://www.w3.org/2000/svg" xmlns:xlink="http://www.w3.org/1999/xlink" viewBox="0 0 463.27 83.97">
  <defs>
    <style>
      .cls-1 {
        fill: none;
      }

      .cls-2 {
        fill: #828282;
      }

      .cls-3 {
        fill: #232020;
      }

      .cls-4 {
        fill: #c40d3c;
      }

      .cls-5 {
        fill: #231f20;
      }

      .cls-6 {
        fill: #ed1c24;
      }

      .cls-7 {
        fill: #fff;
      }

      .cls-8 {
        fill: #ec2228;
      }
    </style>
  </defs>
  <g>
    <path class="cls-1" d="M64.7,61.04V17.04l-12.58,45.17c4.67.11,8.86-.36,12.58-1.18Z"/>
    <path class="cls-1" d="M14.42,37.86v2.04c0,5.16,2.58,9.15,6.27,12.23l.04-26.1c-3.69,3.08-6.31,6.62-6.31,11.83Z"/>
    <path class="cls-3" d="M20.69,16.52c-.09,0-.19-.03-.27-.08-.14-.09-.22-.24-.22-.4v-1.43c0-3.28-.76-5.64-2.26-7.01-1.51-1.37-3.28-1.23-3.29-1.23-.14.01-.27-.03-.37-.12-.1-.09-.16-.22-.16-.36V1.23c0-.27.22-.49.49-.49h20.07c.21,0,.4.14.47.35l3.15,10.52c.04.14.02.29-.06.41-.08.12-.21.2-.35.22-6.3.74-12.02,2.18-17.01,4.26-.06.03-.12.04-.19.04ZM15.1,5.4c.76.04,2.19.29,3.49,1.46,1.72,1.56,2.59,4.16,2.59,7.74v.7c4.76-1.91,10.14-3.24,16.03-3.98l-2.88-9.62H15.1v3.69Z"/>
    <path class="cls-7" d="M34.69,1.23H14.61v4.66s6.08-.61,6.08,8.72v1.43c5.45-2.27,11.3-3.6,17.14-4.29l-3.15-10.52Z"/>
    <path class="cls-3" d="M48.27,76.54h-5.07c-.22,0-.41-.15-.47-.36l-2.74-10.25c-.04-.15,0-.31.09-.43.1-.12.25-.19.41-.18,3.32.22,6.87.27,10.57.17.16,0,.3.06.4.19.09.12.13.28.09.43l-2.8,10.08c-.06.21-.25.36-.47.36ZM43.58,75.57h4.33l2.53-9.09c-3.24.08-6.37.03-9.33-.15l2.47,9.24Z"/>
    <path class="cls-7" d="M40.46,65.81l2.74,10.25h5.07l2.8-10.08c-3.82.11-7.35.04-10.61-.17Z"/>
    <path class="cls-8" d="M28.32,21.32c.09-.04.17-.08.26-.12l-.26-.97v1.09Z"/>
    <path class="cls-1" d="M46.58,15.93s-2.97.33-7.1,1.3l9.61,32.06,10.26-33.44c-3.85-.42-8.1-.45-12.76.08Z"/>
    <path class="cls-3" d="M91.8,29.79h-4.28c-.15,0-.29-.07-.38-.18-.03-.04-3.05-3.77-9.07-7.28-.15-.09-.24-.25-.24-.42v-7.23c0-.15.07-.29.19-.38.12-.09.27-.13.41-.09,1.25.3,1.94.5,1.97.51.2.06,4.71,1.32,7.26-2.76.09-.14.24-.23.41-.23h3.72c.27,0,.49.22.49.49v17.1c0,.27-.22.49-.49.49ZM87.75,28.82h3.56V12.7h-2.97c-2.98,4.44-8.15,2.97-8.21,2.95,0,0-.47-.13-1.33-.35v6.33c5.33,3.16,8.26,6.39,8.94,7.19Z"/>
    <path class="cls-3" d="M91.8,66.04h-3.72c-.17,0-.32-.09-.41-.23-2.55-4.09-7.07-2.82-7.26-2.76-.01,0-.03,0-.04.01l-.93.19s0,0,0,0c-.31.06-.61.11-.91.17l-.11.02c-.14.03-.29-.01-.4-.11-.11-.09-.17-.23-.17-.37v-7.1c0-.17.09-.33.24-.42,6.01-3.51,9.03-7.24,9.06-7.28.09-.12.23-.18.38-.18h4.28c.27,0,.49.22.49.49v17.1c0,.27-.22.49-.49.49ZM88.35,65.06h2.97v-16.13h-3.56c-.68.8-3.61,4.03-8.94,7.19v6.24c.15-.03.3-.05.44-.08l.91-.18c.41-.11,5.31-1.32,8.18,2.96ZM79.35,62.76h0,0Z"/>
    <path class="cls-3" d="M20.45,62.29c-.06,0-.12-.01-.17-.03-10.47-4-15.42-10.15-17.74-14.6C.02,42.81,0,38.95,0,38.79,0,32.94,2.72,27.47,7.88,22.97c3.75-3.28,7.45-4.91,7.82-5.07,1.24-.69,3.24-1.62,4.73-2.28.02-.01.04-.03.07-.04.05-.02.1-.04.16-.06l.05-.02c.36-.16.71-.31,1.05-.45.06-.03.12-.04.19-.04,4.56-1.75,9.68-2.98,15.21-3.68.06-.04.13-.06.2-.07,8.87-1.05,17.45-.6,23.09-.03.14.01.28.09.36.21.08.12.1.27.06.41l-1.25,4.1c-.07.22-.29.37-.52.34-3.99-.44-8.07-.41-12.45.1-.03,0-3.09.37-6.91,1.23-.04.02-.09.04-.13.05-4.04.95-7.72,2.16-10.93,3.6l-.26.12c-2.91,1.33-5.4,2.85-7.39,4.51-.05.05-.12.08-.18.1-3.71,3.73-5.91,8.14-5.92,11.84v2.04c0,4.63,1.93,8.49,5.89,11.79.11.09.18.23.17.37l-.03,9.75c0,.16-.08.31-.21.4-.08.06-.18.09-.27.09ZM20.95,16.46s-.04.02-.06.03c-1.49.65-3.51,1.6-4.74,2.28-.02,0-.03.02-.05.02-.04.02-3.85,1.65-7.6,4.93C3.5,28.09.97,33.16.97,38.79c0,.04.03,3.82,2.46,8.47,2.19,4.2,6.83,9.96,16.54,13.84l.03-8.81c-4.02-3.42-6.06-7.59-6.06-12.38v-2.04c0-4.03,2.4-8.79,6.42-12.74.07-.07.17-.12.27-.13,2.02-1.64,4.49-3.14,7.38-4.45l.26-.12s0,0,0,0c3.23-1.45,6.92-2.67,10.97-3.63.04-.03.09-.04.14-.06,3.94-.9,7.12-1.28,7.16-1.28,4.31-.5,8.33-.54,12.27-.14l.96-3.15c-5.54-.53-13.67-.91-22.08.06-.06.03-.12.06-.19.07-5.6.69-10.77,1.94-15.36,3.72-.05.02-.11.03-.16.03-.28.12-.57.24-.87.37,0,0-.01,0-.02,0l-.07.03s-.03.01-.04.02Z"/>
    <path class="cls-7" d="M87.52,29.31h4.28V12.21h-3.72c-2.79,4.46-7.81,2.97-7.81,2.97,0,0-.69-.2-1.95-.5v7.23c6.17,3.61,9.2,7.4,9.2,7.4Z"/>
    <path class="cls-7" d="M79.35,62.76l.93-.19s5.02-1.49,7.81,2.97h3.72v-17.1h-4.28s-3.03,3.79-9.2,7.4v7.1c.34-.06.68-.12,1.02-.19Z"/>
    <path class="cls-7" d="M28.46,20.86c3.81-1.71,7.77-2.87,11.02-3.63v-.02c3.95-.91,7.1-1.27,7.1-1.27,4.67-.54,8.71-.52,12.56-.1l1.25-4.1c-6.81-.68-14.99-.92-22.98.03v.04c-5.25.65-10.51,1.83-15.47,3.75v-.04c-.31.13-.67.28-1.05.45-.06.03-.13.05-.19.08h0c-1.59.71-3.58,1.64-4.78,2.31,0,0-15.43,6.51-15.43,20.45,0,0-.02,15.38,19.97,23.02l.03-9.75c-3.69-3.08-6.06-7-6.06-12.16v-2.04c0-4.53,3.05-9.22,6.27-12.39v.09c2.21-1.84,4.81-3.35,7.5-4.58l.26-.12Z"/>
    <path class="cls-3" d="M20.45,62.05s-.06,0-.09-.02c-10.4-3.97-15.31-10.07-17.61-14.49C.27,42.75.24,38.95.24,38.79c0-7.29,4.24-12.53,7.8-15.63,3.73-3.26,7.52-4.92,7.77-5.03,1.24-.69,3.25-1.62,4.75-2.28.01-.01.03-.02.05-.03.05-.02.09-.04.14-.06l.06-.02c.35-.16.71-.31,1.04-.45.04-.02.09-.02.13-.02,4.58-1.76,9.71-3,15.26-3.69.04-.03.08-.05.13-.06,8.85-1.05,17.41-.59,23.04-.03.07,0,.14.05.18.11s.05.14.03.21l-1.25,4.1c-.03.11-.14.18-.26.17-4.01-.44-8.1-.41-12.51.1-.03,0-3.13.37-6.98,1.25-.03.02-.06.04-.09.04-4.05.95-7.75,2.17-10.98,3.62l-.26.12c-2.93,1.34-5.44,2.87-7.45,4.54-.04.03-.09.05-.14.06-3.78,3.79-6.04,8.28-6.04,12.06v2.04c0,4.71,1.96,8.62,5.98,11.97.06.05.09.11.09.19l-.03,9.75c0,.08-.04.15-.11.2-.04.03-.09.04-.14.04ZM20.84,16.24s-.03.02-.04.03c-1.49.66-3.53,1.6-4.76,2.29,0,0-.02,0-.02.01-.04.02-3.87,1.66-7.66,4.96-3.48,3.04-7.62,8.15-7.62,15.26,0,.04.03,3.86,2.48,8.56,2.23,4.29,7,10.19,17.01,14.11l.03-9.28c-4.02-3.39-6.06-7.51-6.06-12.27v-2.04c0-3.96,2.37-8.66,6.34-12.57.05-.05.12-.07.19-.07,2.01-1.65,4.49-3.15,7.38-4.47l.26-.12s0,0,0,0c3.23-1.45,6.92-2.67,10.97-3.62.03-.02.06-.04.1-.05,3.93-.9,7.1-1.27,7.13-1.28,4.37-.5,8.43-.54,12.42-.12l1.11-3.62c-5.57-.55-13.89-.96-22.49.04-.04.03-.08.05-.13.06-5.62.69-10.81,1.95-15.42,3.73-.04.01-.08.02-.12.01-.3.12-.6.26-.92.39l-.08.03s-.05.02-.07.03Z"/>
    <path class="cls-3" d="M32.46,76.54H14.61c-.27,0-.49-.22-.49-.49v-3.04c0-.23.17-.43.4-.48,5.76-1.09,5.7-6.19,5.69-6.4v-14.48s.04-25.62.04-25.62c0-.14.06-.28.17-.37,2.17-1.81,4.9-3.51,7.69-4.78.15-.07.33-.06.46.03.14.09.22.24.22.41l-.12,34.86v9.93s0,0,0,.01c0,.08-.12,6.1,4.03,6.6.26.03.44.26.43.52l-.2,2.84c-.02.25-.23.45-.48.45ZM15.09,75.57h16.91l.14-1.95c-1.87-.39-3.22-1.78-3.93-4.02-.54-1.72-.51-3.35-.51-3.49v-9.93l.12-34.1c-2.4,1.16-4.71,2.62-6.61,4.18l-.04,25.87v13.99c0,.33-.04,5.91-6.08,7.29v2.16ZM28.2,66.12h0,0Z"/>
    <path class="cls-7" d="M28.2,66.12v-9.94l.12-34.86c-2.69,1.23-5.37,2.87-7.58,4.71l-.04,25.62v14.47s.17,5.71-6.09,6.89v3.04h17.85l.2-2.84c-4.66-.56-4.46-7.1-4.46-7.1Z"/>
    <path class="cls-3" d="M83.56,76.54h-25.15c-.27,0-.49-.22-.49-.49v-2.64c0-.22.14-.4.35-.47,6.39-1.88,5.96-6.38,5.94-6.58,0-.02,0-.04,0-.06V20.59l-11.62,41.75c-.06.21-.26.36-.48.36-1.85-.04-3.73-.17-5.59-.39-.03,0-3.27-.38-7.62-1.45-.17-.04-.31-.18-.35-.35l-10.44-39.19c-.06-.23.05-.47.27-.57,3.85-1.73,8.09-2.83,11.36-3.6.25-.06.5.09.58.34l8.78,30.1,9.78-31.89c.03-.08.07-.15.13-.21l1.13-3.64c-.02-.08-.02-.17,0-.26l3.29-10.71c.06-.2.25-.34.46-.34h20.89c.27,0,.49.22.49.49v5.07c0,.13-.06.26-.15.35s-.23.14-.36.13c-.02,0-2.38-.11-4.15,1.56-1.35,1.27-2.03,3.25-2.03,5.86v.68s0,.05,0,.08l-.07,6.89c.05.08.08.17.08.26v44.41c0,.22.02,5.32,5.07,6.21.23.04.4.24.4.48v3.04c0,.27-.22.49-.49.49ZM58.9,75.57h24.17v-2.16c-5.47-1.24-5.48-7.03-5.48-7.09V22.13c-.05-.08-.08-.17-.08-.27l.07-7.18s0-.05,0-.07v-.6c0-2.9.79-5.12,2.34-6.58,1.56-1.47,3.45-1.76,4.35-1.81V1.51h-20.04l-3.1,10.11c.02.09.02.18,0,.27l-1.27,4.1c-.03.08-.07.15-.13.21l-10.19,33.23c-.06.2-.25.35-.47.34-.21,0-.4-.14-.46-.35l-9.11-31.21c-3.05.73-6.85,1.74-10.36,3.27l10.26,38.51c4.14,1,7.19,1.36,7.22,1.36,1.71.2,3.43.32,5.12.37l12.36-44.39c.07-.25.32-.4.57-.34h.04s.06.02.09.03c.22.05.37.25.37.47v48.81c.02.23.1,1.51-.6,3.02-1.18,2.53-3.67,3.82-5.68,4.46v1.79Z"/>
    <path class="cls-7" d="M63.89,1.02l-3.29,10.71s-.14.37-.11.37l-1.09,3.57s-.04.16-.06.16l-10.26,33.44-9.24-31.65c-3.25.76-7.46,1.86-11.27,3.57l10.44,39.19c4.37,1.07,7.56,1.44,7.56,1.44,1.92.22,3.77.34,5.55.38l12.46-44.75s.08.01.12.02v48.83s.61,5.07-6.29,7.1v2.64h25.15v-3.04c-5.54-.98-5.48-6.69-5.48-6.69V21.91s.04-.18.01-.19l-.02-7.04s0,0,0,0v-.68c0-8.31,6.69-7.91,6.69-7.91V1.02h-20.89Z"/>
    <path class="cls-1" d="M28.2,56.71c3.71,1.7,7.59,2.88,10.82,3.68l-10.44-39.19c-.09.04-.17.08-.26.12l-.12,35.39Z"/>
    <path class="cls-3" d="M47.5,66.51c-2.45,0-4.82-.07-7.07-.22-.05,0-.09-.01-.13-.03-4.08-.29-7.79-.83-11.67-1.71-.22-.05-.38-.25-.38-.47l-.02-7.3c0-.17.08-.32.22-.41.14-.09.31-.1.47-.03,3.27,1.5,6.66,2.7,10.06,3.56.05,0,.1,0,.15.01,4.28,1.05,7.47,1.43,7.5,1.43,1.72.2,3.46.32,5.18.37,4.57.1,8.59-.24,12.27-1.05.14-.03.29,0,.41.09.11.09.18.23.18.38l.02,3.87c0,.25-.18.46-.43.48-4.75.55-9.02.87-13.43.99-.05,0-.09,0-.13-.01-1.08.03-2.14.04-3.19.04ZM40.62,65.33c3.19.21,6.62.26,10.19.17.04,0,.09,0,.13.01,4.2-.12,8.28-.42,12.78-.93v-2.84c-3.62.74-7.52,1.05-11.93.95h0c-1.75-.05-3.52-.17-5.27-.37-.03,0-3.19-.37-7.46-1.41-.05,0-.1,0-.15-.01-3.27-.82-6.53-1.95-9.69-3.35l.02,6.15c3.73.83,7.32,1.34,11.27,1.61.04,0,.09.01.13.03Z"/>
    <path class="cls-7" d="M51.8,62.2c-1.68-.05-3.42-.17-5.22-.37,0,0-3.19-.37-7.56-1.44v.03c-3.18-.8-6.7-1.98-10.29-3.63l.02,7.3c3.52.8,7.23,1.4,11.72,1.71v.02c3.19.21,6.64.27,10.36.18v.02c4.18-.12,8.48-.42,13.39-.99l-.02-3.87c-3.71.82-7.74,1.17-12.39,1.06Z"/>
    <path class="cls-3" d="M47.5,66.27c-2.45,0-4.81-.07-7.05-.22-.03,0-.06-.01-.09-.02-4.08-.28-7.79-.83-11.67-1.7-.11-.03-.19-.12-.19-.24l-.02-7.3c0-.08.04-.16.11-.2s.16-.05.23-.02c3.3,1.51,6.71,2.72,10.14,3.59.03,0,.07,0,.11,0,4.3,1.06,7.5,1.43,7.53,1.44,1.73.2,3.48.32,5.2.37,4.59.1,8.63-.24,12.33-1.06.07-.02.15,0,.2.05.06.05.09.11.09.19l.02,3.87c0,.12-.09.23-.21.24-4.74.55-9.01.87-13.41.99-.03,0-.06,0-.09-.02-1.09.03-2.17.04-3.23.04ZM40.57,65.57c3.21.21,6.65.27,10.25.17.03,0,.06,0,.09.02,4.29-.12,8.45-.43,13.06-.96l-.02-3.35c-3.66.78-7.64,1.11-12.15,1.01,0,0,0,0,0,0-1.74-.05-3.51-.17-5.24-.37-.03,0-3.2-.38-7.47-1.42-.03,0-.07,0-.11,0-3.38-.85-6.74-2.02-10-3.49l.02,6.72c3.81.85,7.47,1.38,11.49,1.66.03,0,.06.01.09.02Z"/>
    <path class="cls-3" d="M91.8,29.55h-4.28c-.07,0-.14-.03-.19-.09-.03-.04-3.08-3.8-9.13-7.34-.07-.04-.12-.12-.12-.21v-7.23c0-.07.03-.14.09-.19.06-.05.13-.06.21-.05,1.25.3,1.95.5,1.96.5.2.06,4.88,1.38,7.53-2.87.04-.07.12-.11.21-.11h3.72c.13,0,.24.11.24.24v17.1c0,.13-.11.24-.24.24ZM87.63,29.07h3.92V12.45h-3.34c-2.87,4.42-7.96,2.98-8.01,2.96,0,0-.59-.17-1.64-.43v6.78c3.15,1.85,5.45,3.74,6.84,5.01,1.27,1.16,2.01,2.01,2.24,2.28Z"/>
    <path class="cls-3" d="M91.8,65.79h-3.72c-.08,0-.16-.04-.21-.11-2.66-4.25-7.33-2.93-7.53-2.87,0,0-.01,0-.02,0l-.93.19s0,0,0,0c-.31.06-.61.11-.91.17l-.11.02c-.07.01-.14,0-.2-.05-.06-.05-.09-.11-.09-.19v-7.1c0-.09.05-.17.12-.21,6.06-3.54,9.1-7.3,9.13-7.34.05-.06.12-.09.19-.09h4.28c.13,0,.24.11.24.24v17.1c0,.13-.11.24-.24.24ZM88.22,65.31h3.34v-16.61h-3.92c-.51.6-3.53,4.04-9.07,7.29v6.67c.24-.04.49-.09.73-.13l.92-.18c.29-.08,5.2-1.35,8,2.97ZM79.35,62.76h0,0Z"/>
    <path class="cls-7" d="M100.8,41.98c-1.39,0-2.5-.43-3.34-1.29-.84-.86-1.25-2.01-1.23-3.45v-20.82c.02-1.44.46-2.59,1.3-3.45.84-.86,1.94-1.3,3.3-1.3l16.16-.02v3.78s-10.98.02-10.98.02l-.29,22.76,11.24-.02v3.78s-16.16.03-16.16.03Z"/>
    <path class="cls-7" d="M147.72,37.17c-.02,1.44-.45,2.59-1.29,3.45-.84.87-1.94,1.3-3.3,1.3l-16.46.02c-1.39,0-2.5-.43-3.34-1.29-.84-.86-1.25-2.01-1.23-3.45v-20.82c.03-1.44.46-2.59,1.3-3.45.84-.87,1.94-1.3,3.3-1.3l16.46-.02c1.39,0,2.5.43,3.34,1.29.84.86,1.25,2.01,1.23,3.45v20.82ZM131.88,15.4l-.04,22.76h6.11s.04-22.77.04-22.77h-6.11Z"/>
    <polygon class="cls-7" points="199.63 11.51 175.28 11.55 175.28 11.56 152.92 11.59 152.92 15.37 160.21 15.36 160.18 41.89 169.94 41.88 169.97 15.34 177.27 15.33 177.27 15.32 182.58 15.31 182.55 41.85 192.3 41.84 192.34 15.3 199.63 15.29 199.63 11.51"/>
    <path class="cls-7" d="M230.4,37.03c-.02,1.43-.45,2.59-1.29,3.45-.84.87-1.94,1.3-3.3,1.3l-16.46.02c-1.38,0-2.5-.43-3.34-1.29-.84-.86-1.25-2.01-1.23-3.45v-20.82c.03-1.44.46-2.59,1.3-3.45.84-.86,1.94-1.3,3.3-1.3l16.46-.03c1.38,0,2.5.43,3.34,1.29.84.86,1.25,2.01,1.23,3.45v20.82ZM214.56,15.27l-.04,22.76h6.11s.04-22.77.04-22.77h-6.11Z"/>
    <rect class="cls-4" x="96.23" y="44.92" width="134.18" height="1.94"/>
    <g>
      <path class="cls-7" d="M108.63,58.26c0,.69-.21,1.24-.62,1.65-.41.41-.94.62-1.59.62l-5.43-.02v4.55s-4.71,0-4.71,0l-.02-14.53h10.16c.67-.01,1.21.2,1.61.61.41.41.61.96.6,1.65v5.45ZM100.98,52.35v6.36s2.95,0,2.95,0v-6.36s-2.95,0-2.95,0Z"/>
      <path class="cls-7" d="M122.77,65.05h-4.71s-1.62-4.54-1.62-4.54h-1.33s0,4.55,0,4.55h-4.71s-.02-14.53-.02-14.53h10.16c.67-.01,1.2.2,1.6.61.4.41.6.96.59,1.65l.02,5.43c0,.59-.15,1.08-.44,1.46-.3.39-.69.64-1.19.75l1.65,4.61ZM115.1,52.34v6.36s2.93,0,2.93,0v-6.36s-2.93,0-2.93,0Z"/>
      <path class="cls-7" d="M136.9,62.76c0,.69-.21,1.24-.62,1.65-.41.41-.94.62-1.59.62h-7.94c-.67,0-1.21-.2-1.61-.61-.41-.41-.61-.96-.6-1.65l-.02-9.98c0-.69.21-1.24.62-1.65.41-.41.94-.62,1.59-.62h7.94c.67,0,1.21.2,1.61.61.41.41.61.96.6,1.65l.02,9.98ZM129.23,52.32v10.91s2.95,0,2.95,0v-10.91s-2.95,0-2.95,0Z"/>
      <path class="cls-7" d="M153.26,65.02h-4.69s0-8.42,0-8.42l-2.99,8.43h-1.92s-3.09-8.42-3.09-8.42v8.42s-1.76,0-1.76,0l-.02-14.53h4.26s2.93,7.93,2.93,7.93l2.82-7.94h4.44s.02,14.53.02,14.53Z"/>
      <path class="cls-7" d="M167.51,62.73c0,.69-.21,1.24-.62,1.65-.41.41-.94.62-1.59.62h-7.94c-.67,0-1.21-.2-1.61-.61-.41-.41-.61-.96-.6-1.65l-.02-9.98c0-.69.21-1.24.62-1.65.41-.41.94-.62,1.59-.62h7.94c.67,0,1.21.2,1.61.61.41.41.61.96.6,1.65l.02,9.98ZM159.84,52.29v10.91s2.95,0,2.95,0v-10.91s-2.95,0-2.95,0Z"/>
      <path class="cls-7" d="M180.72,52.27h-3.52s.01,12.72.01,12.72h-4.71s-.01-12.72-.01-12.72h-3.52s0-1.81,0-1.81h11.75s0,1.8,0,1.8Z"/>
      <path class="cls-7" d="M186.9,64.99h-4.71s-.02-14.53-.02-14.53h4.71s.02,14.53.02,14.53Z"/>
      <path class="cls-7" d="M201.02,62.7c0,.69-.21,1.24-.62,1.65-.41.41-.94.62-1.59.62h-7.94c-.67,0-1.21-.2-1.61-.61-.41-.41-.61-.96-.6-1.65l-.02-9.98c0-.69.21-1.24.62-1.65.41-.41.94-.62,1.59-.62h7.94c.67,0,1.21.2,1.61.61.41.41.61.96.6,1.65l.02,9.98ZM193.35,52.26v10.91s2.95,0,2.95,0v-10.91s-2.95,0-2.95,0Z"/>
      <path class="cls-7" d="M215.44,64.96h-4.71s-3.24-9.11-3.24-9.11v9.12s-4.71,0-4.71,0l-.02-14.53h4.71s3.24,9.13,3.24,9.13v-9.14s4.7,0,4.7,0l.02,14.53Z"/>
      <path class="cls-7" d="M227.34,56.78c.67,0,1.21.21,1.61.62.41.41.61.96.6,1.65v3.62c0,.69-.2,1.24-.61,1.65-.41.41-.94.62-1.59.62h-7.94c-.67,0-1.2-.2-1.6-.61-.4-.41-.6-.96-.61-1.65l-.02-1.96h4.71s0,2.42,0,2.42h2.95s0-4.55,0-4.55h-5.45c-.67,0-1.21-.2-1.61-.61-.41-.41-.61-.96-.6-1.65v-3.62c0-.69.2-1.24.61-1.65.41-.41.94-.62,1.59-.62h7.94c.67,0,1.21.2,1.61.61.41.41.6.96.6,1.64l.02,1.96h-4.71s0-2.4,0-2.4h-2.95s0,4.55,0,4.55h5.45Z"/>
    </g>
  </g>
  <g>
    <polygon class="cls-7" points="338.18 34.89 357.53 .91 338.99 .91 320.34 35.13 316.13 41.63 298.19 73.84 316.29 73.84 334.57 41.63 338.18 34.89"/>
    <polygon class="cls-7" points="376.05 34.42 394.66 1.36 376.05 1.31 357.61 34.6 353.47 41.63 335.31 73.84 353.83 73.84 371.73 41.73 376.05 34.42"/>
    <g>
      <polygon class="cls-2" points="427.13 38.38 425.18 3.76 406.49 34.09 402.77 34.34 313.36 37.8 310.34 42.44 391.85 41.64 391.85 41.69 408.27 41.65 422.85 18.47 424.18 41.99 444.49 41.99 424.95 55.52 425.96 73.4 410.21 59.02 391.26 77.74 409.53 63.98 429.57 81.29 428.29 58.77 459.38 38.38 427.13 38.38"/>
      <path class="cls-5" d="M430.88,83.97l-21.4-18.49-17.52,13.19-1.52-1.76,19.73-19.5,14.46,13.21-.89-15.69,17.02-11.78h-17.69l-1.19-20.98-12.98,20.64-18.36.04v-.04s-82.38.81-82.38.81l4.54-6.96,89.99-3.49,3.1-.21L426.13,0l2.1,37.22h35.04l-33.78,22.16,1.39,24.59ZM409.58,62.49l18.67,16.13-1.16-20.45,28.39-18.63h-29.45l-1.8-32.02-17.06,27.68-4.35.29-88.81,3.44-1.51,2.31,80.65-.79v.06s14.48-.03,14.48-.03l16.18-25.73,1.48,26.06h22.93l-22.07,15.28,1.14,20.08-17.04-15.56-5.82,5.75,5.17-3.89Z"/>
    </g>
    <g>
      <g>
        <path class="cls-7" d="M367.49,53.77l4.64-9.65,2.85-.02-.56,1.17h-1.7s-1.42,2.94-1.42,2.94h1.51s-.56,1.16-.56,1.16h-1.51s-1.55,3.22-1.55,3.22h1.7s-.56,1.16-.56,1.16l-2.85.02Z"/>
        <path class="cls-7" d="M367.28,53.9l4.76-9.91,3.13-.02-.68,1.43h-1.7s-1.29,2.69-1.29,2.69h1.51s-.68,1.42-.68,1.42h-1.51s-1.43,2.97-1.43,2.97h1.7s-.68,1.41-.68,1.41l-3.13.02ZM372.2,44.24l-4.51,9.4,2.56-.02.43-.91h-1.71s1.68-3.46,1.68-3.46h1.51s.43-.92.43-.92h-1.51s1.54-3.18,1.54-3.18h1.7s.43-.92.43-.92l-2.56.02Z"/>
      </g>
      <g>
        <path class="cls-7" d="M376.53,48.73l2.24-4.67h1.14s-4.64,9.65-4.64,9.65h-1.14s.92-1.92.92-1.92l.88-4.39-3.03,6.32h-1.14s4.64-9.65,4.64-9.65h1.14s-1.01,4.65-1.01,4.65Z"/>
        <path class="cls-7" d="M371.55,53.87l4.76-9.91h1.38s-.82,3.74-.82,3.74l1.81-3.76h1.43s-4.76,9.9-4.76,9.9h-1.43s1-2.08,1-2.08l.68-3.37-2.62,5.47h-1.43ZM376.48,44.21l-4.51,9.4h.86s3.44-7.18,3.44-7.18l-1.09,5.41-.84,1.75h.86s4.51-9.4,4.51-9.4h-.86s-2.68,5.58-2.68,5.58l1.21-5.57h-.9Z"/>
      </g>
      <g>
        <path class="cls-7" d="M382.86,45.2l-4.08,8.48h-1.14s4.08-8.48,4.08-8.48h-1.1s.56-1.16.56-1.16l3.33-.02-.56,1.17h-1.1Z"/>
        <path class="cls-7" d="M377.43,53.83l4.08-8.48h-1.09s.68-1.42.68-1.42l3.62-.02-.68,1.43h-1.1s-4.08,8.49-4.08,8.49h-1.43ZM381.92,45.08l-4.08,8.48h.86s4.08-8.49,4.08-8.49h1.09s.43-.92.43-.92l-3.05.02-.43.91h1.1Z"/>
      </g>
      <g>
        <path class="cls-7" d="M381.14,53.67l4.64-9.66,2.85-.02-.56,1.17h-1.7s-1.42,2.94-1.42,2.94h1.51s-.56,1.16-.56,1.16h-1.51s-1.55,3.23-1.55,3.23h1.7s-.56,1.16-.56,1.16l-2.85.02Z"/>
        <path class="cls-7" d="M380.94,53.8l4.76-9.91,3.13-.02-.68,1.43h-1.7s-1.29,2.69-1.29,2.69h1.51s-.68,1.42-.68,1.42h-1.51s-1.43,2.97-1.43,2.97h1.7s-.68,1.41-.68,1.41l-3.13.02ZM385.86,44.15l-4.52,9.4,2.56-.02.43-.91h-1.71s1.68-3.46,1.68-3.46h1.51s.43-.92.43-.92h-1.51s1.54-3.18,1.54-3.18h1.7s.43-.92.43-.92l-2.56.02Z"/>
      </g>
      <g>
        <path class="cls-7" d="M390.05,43.99h2.24c.88-.02,1.05.53.52,1.63l-1.14,2.38c-.41.84-.89,1.38-1.46,1.6l-1.12,4.02h-1.08s1.12-3.89,1.12-3.89h-.69s-1.87,3.91-1.87,3.91h-1.14s4.64-9.65,4.64-9.65ZM388.96,48.63h.75c.34,0,.62-.24.85-.71l1-2.08c.23-.47.17-.7-.17-.69h-.75s-1.68,3.49-1.68,3.49Z"/>
        <path class="cls-7" d="M385.21,53.77l4.76-9.91h2.32s.01-.01.02-.01c.4,0,.68.11.82.34.2.31.13.79-.2,1.49l-1.14,2.38c-.4.84-.9,1.39-1.47,1.64l-1.13,4.05h-1.35s1.12-3.89,1.12-3.89h-.44s-1.87,3.9-1.87,3.9h-1.43ZM390.13,44.12l-4.51,9.4h.86s1.87-3.91,1.87-3.91h.94s-1.12,3.89-1.12,3.89h.82s1.11-3.99,1.11-3.99l.06-.02c.54-.21,1-.73,1.39-1.54l1.14-2.38c.28-.59.36-1.02.21-1.24-.1-.15-.31-.22-.62-.22h-2.16ZM388.76,48.76l1.8-3.74h.83s0,0,0,0c.18,0,.3.06.37.17.1.15.07.38-.09.71l-1,2.08c-.25.51-.57.77-.97.78h-.96ZM390.72,45.28l-1.56,3.23h.55c.29,0,.53-.21.74-.63l1-2.08c.16-.33.12-.44.11-.46-.03-.04-.11-.05-.16-.05h-.68Z"/>
      </g>
      <g>
        <path class="cls-7" d="M396.43,45.11l-4.08,8.49h-1.14s4.08-8.48,4.08-8.48h-1.09s.56-1.16.56-1.16l3.33-.02-.56,1.17h-1.1Z"/>
        <path class="cls-7" d="M391.01,53.73l4.08-8.48h-1.09s.68-1.42.68-1.42l3.62-.02-.68,1.43h-1.1s-4.08,8.49-4.08,8.49h-1.43ZM395.49,44.99l-4.08,8.48h.86s4.08-8.49,4.08-8.49h1.1s.43-.92.43-.92l-3.05.02-.43.91h1.1Z"/>
      </g>
      <g>
        <path class="cls-7" d="M395.8,53.57h-1.14s3.85-7.99,3.85-7.99c.53-1.1,1.25-1.66,2.17-1.66h.85c.92-.01,1.11.54.58,1.64l-3.85,8h-1.14s1.69-3.53,1.69-3.53h-1.31s-1.69,3.55-1.69,3.55ZM399.37,48.86l1.55-3.21c.18-.38.1-.56-.23-.56h-.31c-.33,0-.59.19-.77.57l-1.55,3.21h1.31Z"/>
        <path class="cls-7" d="M394.45,53.71l3.94-8.19c.55-1.14,1.31-1.73,2.28-1.74h.85c.44,0,.74.11.89.35.2.31.14.79-.19,1.47l-3.88,8.07h-1.43s1.69-3.53,1.69-3.53h-1.03s-1.69,3.54-1.69,3.54h-1.43ZM401.54,44.04s0,0-.02,0h-.85c-.87.01-1.54.53-2.05,1.6l-3.76,7.82h.86s1.69-3.54,1.69-3.54h1.6s-1.69,3.52-1.69,3.52h.86s3.81-7.93,3.81-7.93c.28-.58.35-1,.2-1.22-.1-.16-.32-.24-.66-.24ZM397.85,48.99l1.64-3.4c.2-.42.5-.64.88-.64h.31s0,0,0,0c.19,0,.33.06.4.17.08.13.07.32-.05.58l-1.59,3.29h-1.6ZM400.7,45.21h-.32c-.28,0-.5.17-.66.5l-1.46,3.03h1.03s1.52-3.15,1.52-3.15c.11-.23.08-.31.07-.33-.02-.03-.09-.05-.18-.05Z"/>
      </g>
      <g>
        <path class="cls-7" d="M399.88,53.55l4.64-9.66h1.14s-4.64,9.65-4.64,9.65h-1.14Z"/>
        <path class="cls-7" d="M399.67,53.67l4.76-9.91h1.43s-4.76,9.9-4.76,9.9h-1.43ZM404.6,44.02l-4.52,9.4h.86s4.52-9.4,4.52-9.4h-.86Z"/>
      </g>
      <g>
        <path class="cls-7" d="M407.47,48.52l2.24-4.67h1.15s-4.64,9.65-4.64,9.65h-1.14s.92-1.92.92-1.92l.89-4.39-3.03,6.32h-1.14s4.64-9.65,4.64-9.65h1.14s-1.01,4.65-1.01,4.65Z"/>
        <path class="cls-7" d="M402.5,53.65l4.76-9.91h1.38s-.82,3.74-.82,3.74l1.81-3.76h1.43s-4.76,9.9-4.76,9.9h-1.43s1-2.08,1-2.08l.68-3.37-2.63,5.47h-1.43ZM407.42,44l-4.52,9.4h.86s3.44-7.18,3.44-7.18l-1.09,5.41-.84,1.75h.86s4.52-9.4,4.52-9.4h-.86s-2.68,5.58-2.68,5.58l1.21-5.57h-.9Z"/>
      </g>
      <g>
        <path class="cls-7" d="M412.13,49.49l3.79-5.68h1.27s-4.64,9.65-4.64,9.65h-1.14s3.16-6.31,3.16-6.31l-3.06,4.58h-.88s1.33-4.56,1.33-4.56l-2.91,6.32h-1.14s4.64-9.65,4.64-9.65h1.26s-1.67,5.66-1.67,5.66Z"/>
        <path class="cls-7" d="M407.69,53.62l4.76-9.91h1.52s-1.48,5.01-1.48,5.01l3.36-5.04h1.54s-4.76,9.9-4.76,9.9h-1.43s2.34-4.67,2.34-4.67l-1.96,2.94h-1.12s.9-3.08.9-3.08l-2.23,4.84h-1.43ZM412.62,43.96l-4.52,9.4h.86s2.88-6.25,2.88-6.25l.24.09-1.28,4.4h.64s3.02-4.53,3.02-4.53l.22.13-3.06,6.13h.86s4.52-9.4,4.52-9.4h-.99s-4.22,6.33-4.22,6.33l1.86-6.31h-1.01Z"/>
      </g>
      <g>
        <path class="cls-7" d="M414.23,53.45l4.64-9.66,2.85-.02-.56,1.17h-1.7s-1.42,2.94-1.42,2.94h1.51s-.56,1.16-.56,1.16h-1.51s-1.55,3.22-1.55,3.22h1.7s-.56,1.16-.56,1.16l-2.85.02Z"/>
        <path class="cls-7" d="M414.02,53.58l4.76-9.91,3.13-.02-.68,1.43h-1.7s-1.29,2.69-1.29,2.69h1.51s-.68,1.42-.68,1.42h-1.51s-1.43,2.97-1.43,2.97h1.7s-.68,1.42-.68,1.42l-3.13.02ZM418.95,43.92l-4.51,9.4,2.56-.02.43-.91h-1.71s1.68-3.46,1.68-3.46h1.51s.43-.92.43-.92h-1.51s1.54-3.18,1.54-3.18h1.7s.43-.92.43-.92l-2.56.02Z"/>
      </g>
      <g>
        <path class="cls-7" d="M423.27,48.41l2.24-4.67h1.14s-4.64,9.65-4.64,9.65h-1.14s.92-1.91.92-1.91l.89-4.39-3.03,6.32h-1.14s4.64-9.65,4.64-9.65h1.14s-1.01,4.65-1.01,4.65Z"/>
        <path class="cls-7" d="M418.29,53.55l4.76-9.91h1.38s-.82,3.74-.82,3.74l1.81-3.76h1.43s-4.76,9.9-4.76,9.9h-1.43s1-2.08,1-2.08l.68-3.37-2.62,5.47h-1.43ZM423.22,43.89l-4.52,9.4h.86s3.44-7.18,3.44-7.18l-1.09,5.41h0s-.83,1.75-.83,1.75h.86s4.52-9.4,4.52-9.4h-.86s-2.68,5.58-2.68,5.58l1.21-5.57h-.91Z"/>
      </g>
      <g>
        <path class="cls-7" d="M429.6,44.88l-4.08,8.48h-1.15s4.08-8.48,4.08-8.48h-1.09s.56-1.16.56-1.16l3.34-.02-.56,1.17h-1.1Z"/>
        <path class="cls-7" d="M424.17,53.51l4.08-8.49h-1.09s.68-1.42.68-1.42l3.62-.03-.68,1.43h-1.1s-4.08,8.49-4.08,8.49h-1.43ZM428.66,44.76l-4.08,8.49h.86s4.08-8.49,4.08-8.49h1.1s.43-.92.43-.92l-3.05.02-.43.91h1.1Z"/>
      </g>
    </g>
    <path class="cls-7" d="M381.09,31.46l6.08-11.36c1.18-2.2,2.6-3.89,4.27-5.05,1.67-1.17,3.67-1.76,5.99-1.77l8.95-.06c.53,0,.98-.15,1.35-.43.37-.28.73-.76,1.09-1.43.36-.68.51-1.14.43-1.41-.07-.26-.38-.39-.91-.39l-5.55.04c-.95,0-1.63.14-2.05.39-.42.25-.81.72-1.17,1.39l-7.75.05,1.18-2.2c.78-1.45,1.55-2.63,2.31-3.55.77-.92,1.59-1.63,2.48-2.14.89-.51,1.88-.85,2.97-1.04,1.09-.18,2.37-.28,3.83-.29l9.16-.06c1.42,0,2.58.07,3.48.24.9.17,1.53.5,1.88,1,.35.5.42,1.2.21,2.11-.21.91-.7,2.09-1.47,3.53l-2.81,5.25c-.52.97-1.11,1.83-1.77,2.59-.66.75-1.42,1.39-2.3,1.91-.87.52-1.86.92-2.97,1.21-1.11.29-2.35.43-3.73.44l-8.46.06c-.76,0-1.4.49-1.92,1.46l-1.11,2.07,17.1-.12-3.96,7.4-24.84.17Z"/>
  </g>
  <rect class="cls-6" x="261.1" width="3.27" height="78.62"/>
</svg>